%TF.GenerationSoftware,Altium Limited,Altium Designer,24.3.1 (35)*%
G04 Layer_Physical_Order=2*
G04 Layer_Color=16711680*
%FSLAX45Y45*%
%MOMM*%
%TF.SameCoordinates,C12ACCCC-6258-4ABC-958C-20978443E832*%
%TF.FilePolarity,Positive*%
%TF.FileFunction,Copper,L2,Bot,Signal*%
%TF.Part,Single*%
G01*
G75*
%TA.AperFunction,ComponentPad*%
%ADD11R,1.20000X2.00000*%
%ADD12O,1.20000X2.00000*%
%ADD13R,2.50000X1.20000*%
%ADD14O,2.50000X1.20000*%
%ADD15R,2.00000X1.20000*%
%ADD16O,2.00000X1.20000*%
D11*
X8280400Y7696200D02*
D03*
X11226800Y6908800D02*
D03*
X6007100Y7543800D02*
D03*
D12*
X8280400Y7950200D02*
D03*
X11226800Y7162800D02*
D03*
X6007100Y7797800D02*
D03*
D13*
X9080500Y8496300D02*
D03*
D14*
Y8242300D02*
D03*
Y7988300D02*
D03*
Y7734300D02*
D03*
Y7480300D02*
D03*
Y7226300D02*
D03*
Y6972300D02*
D03*
Y6718300D02*
D03*
X9884298Y8242300D02*
D03*
Y7988300D02*
D03*
Y7734300D02*
D03*
Y7480300D02*
D03*
Y7226300D02*
D03*
Y6972300D02*
D03*
Y6718300D02*
D03*
Y8496300D02*
D03*
D15*
X9512300Y5664200D02*
D03*
D16*
X9766300D02*
D03*
%TF.MD5,b1cc2769b61a3ba9bea4687aca010790*%
M02*
