%TF.GenerationSoftware,Altium Limited,Altium Designer,24.3.1 (35)*%
G04 Layer_Color=65535*
%FSLAX45Y45*%
%MOMM*%
%TF.SameCoordinates,C12ACCCC-6258-4ABC-958C-20978443E832*%
%TF.FilePolarity,Positive*%
%TF.FileFunction,Legend,Top*%
%TF.Part,Single*%
G01*
G75*
%TA.AperFunction,NonConductor*%
%ADD17C,0.10160*%
%ADD18C,0.20000*%
%ADD19C,0.25400*%
D17*
X8445500Y7698830D02*
G03*
X8451850Y7683500I21680J0D01*
G01*
X11391900Y6911430D02*
G03*
X11398250Y6896100I21680J0D01*
G01*
X6172200Y7546430D02*
G03*
X6178550Y7531100I21680J0D01*
G01*
X9514930Y5499100D02*
G03*
X9499600Y5492750I0J-21680D01*
G01*
X8432800Y7683500D02*
X8470900D01*
X8451850D02*
X8470900D01*
X8445500Y7658100D02*
Y7698831D01*
X11379200Y6896100D02*
X11417300D01*
X11398250D02*
X11417300D01*
X11391900Y6870700D02*
Y6911431D01*
X6159500Y7531100D02*
X6197600D01*
X6178550D02*
X6197600D01*
X6172200Y7505700D02*
Y7546431D01*
X9499600Y5473700D02*
Y5511800D01*
Y5473700D02*
Y5492750D01*
X9474200Y5499100D02*
X9514931D01*
D18*
X9418900Y8623300D02*
G03*
X9545900Y8623300I63500J0D01*
G01*
X8102600Y7505700D02*
Y8064500D01*
Y8153400D01*
X8496300Y7991475D02*
Y8153400D01*
Y7505700D02*
Y7667625D01*
Y7991475D01*
X8102600Y8153400D02*
X8496300D01*
X8102600Y7505700D02*
X8496300D01*
X8432800Y7924800D02*
Y7988300D01*
X9250898Y8623300D02*
X9418899D01*
X9545899D02*
X9713900D01*
Y6591300D02*
Y8623300D01*
X9250898Y6591300D02*
X9713900D01*
X9250898D02*
Y8623300D01*
X11049000Y6718300D02*
Y7277100D01*
Y7366000D01*
X11442700Y7204075D02*
Y7366000D01*
Y6718300D02*
Y6880225D01*
Y7204075D01*
X11049000Y7366000D02*
X11442700D01*
X11049000Y6718300D02*
X11442700D01*
X11379200Y7137400D02*
Y7200900D01*
X5829300Y7353300D02*
Y7912100D01*
Y8001000D01*
X6223000Y7839075D02*
Y8001000D01*
Y7353300D02*
Y7515225D01*
Y7839075D01*
X5829300Y8001000D02*
X6223000D01*
X5829300Y7353300D02*
X6223000D01*
X6159500Y7772400D02*
Y7835900D01*
X9321800Y5842000D02*
X9880600D01*
X9969500D01*
X9807575Y5448300D02*
X9969500D01*
X9321800D02*
X9483725D01*
X9807575D01*
X9969500D02*
Y5842000D01*
X9321800Y5448300D02*
Y5842000D01*
X9740900Y5511800D02*
X9804400D01*
D19*
X11544300Y7264351D02*
X11595083D01*
X11569692D01*
Y7112000D01*
X11544300D01*
X11595083D01*
X11772826Y7213567D02*
X11696651D01*
X11671259Y7188175D01*
Y7137392D01*
X11696651Y7112000D01*
X11772826D01*
X11975960D02*
Y7264351D01*
X12052136D01*
X12077528Y7238959D01*
Y7188175D01*
X12052136Y7162783D01*
X11975960D01*
X12153703Y7112000D02*
X12204486D01*
X12229878Y7137392D01*
Y7188175D01*
X12204486Y7213567D01*
X12153703D01*
X12128311Y7188175D01*
Y7137392D01*
X12153703Y7112000D01*
X12280662Y7213567D02*
Y7137392D01*
X12306054Y7112000D01*
X12331445Y7137392D01*
X12356837Y7112000D01*
X12382229Y7137392D01*
Y7213567D01*
X12509188Y7112000D02*
X12458404D01*
X12433012Y7137392D01*
Y7188175D01*
X12458404Y7213567D01*
X12509188D01*
X12534580Y7188175D01*
Y7162783D01*
X12433012D01*
X12585363Y7213567D02*
Y7112000D01*
Y7162783D01*
X12610755Y7188175D01*
X12636147Y7213567D01*
X12661539D01*
X9880600Y6248334D02*
Y6095983D01*
X9956775D01*
X9982167Y6121375D01*
Y6146767D01*
X9956775Y6172159D01*
X9880600D01*
X9956775D01*
X9982167Y6197551D01*
Y6222942D01*
X9956775Y6248334D01*
X9880600D01*
X10058343Y6197551D02*
X10109126D01*
X10134518Y6172159D01*
Y6095983D01*
X10058343D01*
X10032951Y6121375D01*
X10058343Y6146767D01*
X10134518D01*
X10210693Y6222942D02*
Y6197551D01*
X10185301D01*
X10236085D01*
X10210693D01*
Y6121375D01*
X10236085Y6095983D01*
X10337652Y6222942D02*
Y6197551D01*
X10312260D01*
X10363044D01*
X10337652D01*
Y6121375D01*
X10363044Y6095983D01*
X10515395D02*
X10464611D01*
X10439219Y6121375D01*
Y6172159D01*
X10464611Y6197551D01*
X10515395D01*
X10540786Y6172159D01*
Y6146767D01*
X10439219D01*
X10591570Y6197551D02*
Y6095983D01*
Y6146767D01*
X10616962Y6172159D01*
X10642353Y6197551D01*
X10667745D01*
X10743921D02*
Y6121375D01*
X10769312Y6095983D01*
X10845488D01*
Y6070592D01*
X10820096Y6045200D01*
X10794704D01*
X10845488Y6095983D02*
Y6197551D01*
X7099300Y8026400D02*
Y8178751D01*
X7150083Y8127967D01*
X7200867Y8178751D01*
Y8026400D01*
X7277043D02*
X7327826D01*
X7353218Y8051792D01*
Y8102575D01*
X7327826Y8127967D01*
X7277043D01*
X7251651Y8102575D01*
Y8051792D01*
X7277043Y8026400D01*
X7429393Y8153359D02*
Y8127967D01*
X7404001D01*
X7454785D01*
X7429393D01*
Y8051792D01*
X7454785Y8026400D01*
X7556352D02*
X7607136D01*
X7632528Y8051792D01*
Y8102575D01*
X7607136Y8127967D01*
X7556352D01*
X7530960Y8102575D01*
Y8051792D01*
X7556352Y8026400D01*
X7683311Y8127967D02*
Y8026400D01*
Y8077183D01*
X7708703Y8102575D01*
X7734095Y8127967D01*
X7759486D01*
X4991067Y7886642D02*
X4965675Y7912034D01*
X4914892D01*
X4889500Y7886642D01*
Y7861251D01*
X4914892Y7835859D01*
X4965675D01*
X4991067Y7810467D01*
Y7785075D01*
X4965675Y7759683D01*
X4914892D01*
X4889500Y7785075D01*
X5041851Y7759683D02*
X5092634D01*
X5067243D01*
Y7861251D01*
X5041851D01*
X5219593Y7708900D02*
X5244985D01*
X5270377Y7734292D01*
Y7861251D01*
X5194201D01*
X5168810Y7835859D01*
Y7785075D01*
X5194201Y7759683D01*
X5270377D01*
X5321160D02*
Y7861251D01*
X5397336D01*
X5422728Y7835859D01*
Y7759683D01*
X5498903Y7861251D02*
X5549686D01*
X5575078Y7835859D01*
Y7759683D01*
X5498903D01*
X5473511Y7785075D01*
X5498903Y7810467D01*
X5575078D01*
X5625862Y7759683D02*
X5676645D01*
X5651254D01*
Y7912034D01*
X5625862D01*
X8219407Y8392111D02*
X8168623D01*
X8194015D01*
Y8265152D01*
X8168623Y8239760D01*
X8143232D01*
X8117840Y8265152D01*
X8270191Y8239760D02*
X8320974D01*
X8295583D01*
Y8392111D01*
X8270191Y8366719D01*
X8971280Y8862011D02*
Y8735052D01*
X8996672Y8709660D01*
X9047455D01*
X9072847Y8735052D01*
Y8862011D01*
X9123631Y8709660D02*
X9174414D01*
X9149023D01*
Y8862011D01*
X9123631Y8836619D01*
X11165807Y7604711D02*
X11115023D01*
X11140415D01*
Y7477752D01*
X11115023Y7452360D01*
X11089632D01*
X11064240Y7477752D01*
X11216591Y7579319D02*
X11241983Y7604711D01*
X11292766D01*
X11318158Y7579319D01*
Y7553927D01*
X11292766Y7528535D01*
X11267374D01*
X11292766D01*
X11318158Y7503143D01*
Y7477752D01*
X11292766Y7452360D01*
X11241983D01*
X11216591Y7477752D01*
X5946107Y8239711D02*
X5895323D01*
X5920715D01*
Y8112752D01*
X5895323Y8087360D01*
X5869932D01*
X5844540Y8112752D01*
X6098458Y8087360D02*
X5996891D01*
X6098458Y8188927D01*
Y8214319D01*
X6073066Y8239711D01*
X6022283D01*
X5996891Y8214319D01*
X9438607Y6080711D02*
X9387823D01*
X9413215D01*
Y5953752D01*
X9387823Y5928360D01*
X9362432D01*
X9337040Y5953752D01*
X9565566Y5928360D02*
Y6080711D01*
X9489391Y6004535D01*
X9590958D01*
%TF.MD5,dac0dd1af031cc0f4aec6a72fdd5c480*%
M02*
