%TF.GenerationSoftware,Altium Limited,Altium Designer,24.3.1 (35)*%
G04 Layer_Physical_Order=1*
G04 Layer_Color=255*
%FSLAX45Y45*%
%MOMM*%
%TF.SameCoordinates,C12ACCCC-6258-4ABC-958C-20978443E832*%
%TF.FilePolarity,Positive*%
%TF.FileFunction,Copper,L1,Top,Signal*%
%TF.Part,Single*%
G01*
G75*
%TA.AperFunction,Conductor*%
%ADD10C,0.25400*%
%TA.AperFunction,ComponentPad*%
%ADD11R,1.20000X2.00000*%
%ADD12O,1.20000X2.00000*%
%ADD13R,2.50000X1.20000*%
%ADD14O,2.50000X1.20000*%
%ADD15R,2.00000X1.20000*%
%ADD16O,2.00000X1.20000*%
D10*
X6007100Y7812201D02*
X6050799Y7855901D01*
X6883400Y8674100D02*
X8583700D01*
X6007100Y7797800D02*
Y7812201D01*
X6050799Y7855901D02*
X6065201D01*
X6883400Y8674100D01*
X8583700D02*
X9015500Y8242300D01*
X9080500D01*
X8327700Y7608900D02*
X8458451D01*
X8841051Y7226300D01*
X8280400Y7656200D02*
Y7696200D01*
Y7656200D02*
X8327700Y7608900D01*
X8841051Y7226300D02*
X9080500D01*
X9075100Y7982900D02*
X9080500Y7988300D01*
X8313100Y7982900D02*
X9075100D01*
X8280400Y7950200D02*
X8313100Y7982900D01*
X6007100Y7503800D02*
Y7543800D01*
X6538600Y6972300D02*
X9080500D01*
X6007100Y7503800D02*
X6538600Y6972300D01*
X7772400Y6616700D02*
X7874000Y6718300D01*
X9080500D01*
X7772400Y5727700D02*
Y6616700D01*
Y5727700D02*
X7835900Y5664200D01*
X9512300D01*
X9884298Y7734300D02*
X9949298D01*
X10025498Y7810500D01*
X11976100D01*
X12280900Y7505700D01*
X13248279Y7469779D02*
Y7490821D01*
X13233400Y7505700D02*
X13248279Y7490821D01*
X12280900Y7505700D02*
X13233400D01*
X11442700Y5664200D02*
X13248279Y7469779D01*
X9766300Y5664200D02*
X11442700D01*
X9949298Y6718300D02*
X10139798Y6908800D01*
X11226800D01*
X9884298Y6718300D02*
X9949298D01*
Y7480300D02*
X10266798Y7162800D01*
X9884298Y7480300D02*
X9949298D01*
X10266798Y7162800D02*
X11226800D01*
D11*
X8280400Y7696200D02*
D03*
X11226800Y6908800D02*
D03*
X6007100Y7543800D02*
D03*
D12*
X8280400Y7950200D02*
D03*
X11226800Y7162800D02*
D03*
X6007100Y7797800D02*
D03*
D13*
X9080500Y8496300D02*
D03*
D14*
Y8242300D02*
D03*
Y7988300D02*
D03*
Y7734300D02*
D03*
Y7480300D02*
D03*
Y7226300D02*
D03*
Y6972300D02*
D03*
Y6718300D02*
D03*
X9884298Y8242300D02*
D03*
Y7988300D02*
D03*
Y7734300D02*
D03*
Y7480300D02*
D03*
Y7226300D02*
D03*
Y6972300D02*
D03*
Y6718300D02*
D03*
Y8496300D02*
D03*
D15*
X9512300Y5664200D02*
D03*
D16*
X9766300D02*
D03*
%TF.MD5,07d10db8f5907040e15e818c206a606f*%
M02*
