%TF.GenerationSoftware,Altium Limited,Altium Designer,24.3.1 (35)*%
G04 Layer_Color=65535*
%FSLAX45Y45*%
%MOMM*%
%TF.SameCoordinates,E851E176-8CB6-418E-8C67-C8CBA5644839*%
%TF.FilePolarity,Positive*%
%TF.FileFunction,Legend,Top*%
%TF.Part,Single*%
G01*
G75*
%TA.AperFunction,NonConductor*%
%ADD17C,0.20000*%
%ADD18C,0.10160*%
%ADD19C,0.12700*%
%ADD20C,0.25400*%
%ADD21R,1.01600X5.08000*%
D17*
X8619900Y7086600D02*
G03*
X8619900Y7086600I-10000J0D01*
G01*
X5308600Y8750300D02*
Y8890000D01*
X5854700D01*
Y7429500D02*
Y8890000D01*
X5308600Y7429500D02*
X5854700D01*
X5308600D02*
Y8750300D01*
X7035800Y8559800D02*
X7594600D01*
X6946900D02*
X7035800D01*
X6946900Y8953500D02*
X7108825D01*
X7432675D02*
X7594600D01*
X7108825D02*
X7432675D01*
X6946900Y8559800D02*
Y8953500D01*
X7594600Y8559800D02*
Y8953500D01*
X7112000Y8890000D02*
X7175500D01*
X6146800Y6540500D02*
X6248400D01*
X6146800D02*
Y7048500D01*
X6756400D01*
Y6540500D02*
Y7048500D01*
X6248400Y6540500D02*
X6756400D01*
D18*
X7401470Y8902700D02*
G03*
X7416800Y8909050I0J21680D01*
G01*
Y8890000D02*
Y8928100D01*
Y8909050D02*
Y8928100D01*
X7401470Y8902700D02*
X7442200D01*
D19*
X8686900Y6572100D02*
Y8871100D01*
X10032900D01*
Y6572100D02*
Y8871100D01*
X8686900Y6572100D02*
X10032900D01*
D20*
X6705600Y10071051D02*
Y9918700D01*
X6807167D01*
X6959518Y10071051D02*
X6857951D01*
Y9918700D01*
X6959518D01*
X6857951Y9994875D02*
X6908734D01*
X7010301Y10071051D02*
Y9918700D01*
X7086477D01*
X7111869Y9944092D01*
Y10045659D01*
X7086477Y10071051D01*
X7010301D01*
X7315003Y9918700D02*
Y10071051D01*
X7365786Y10020267D01*
X7416570Y10071051D01*
Y9918700D01*
X7492745D02*
X7543529D01*
X7568921Y9944092D01*
Y9994875D01*
X7543529Y10020267D01*
X7492745D01*
X7467354Y9994875D01*
Y9944092D01*
X7492745Y9918700D01*
X7721272Y10071051D02*
Y9918700D01*
X7645096D01*
X7619704Y9944092D01*
Y9994875D01*
X7645096Y10020267D01*
X7721272D01*
X7772055D02*
Y9944092D01*
X7797447Y9918700D01*
X7873622D01*
Y10020267D01*
X7924406Y9918700D02*
X7975189D01*
X7949798D01*
Y10071051D01*
X7924406D01*
X8127540Y9918700D02*
X8076757D01*
X8051365Y9944092D01*
Y9994875D01*
X8076757Y10020267D01*
X8127540D01*
X8152932Y9994875D01*
Y9969483D01*
X8051365D01*
X5323840Y8976360D02*
Y9128711D01*
X5400015D01*
X5425407Y9103319D01*
Y9052535D01*
X5400015Y9027143D01*
X5323840D01*
X5374623D02*
X5425407Y8976360D01*
X5476191D02*
X5526974D01*
X5501583D01*
Y9128711D01*
X5476191Y9103319D01*
X8717247Y9100779D02*
X8691855Y9126171D01*
X8641072D01*
X8615680Y9100779D01*
Y9075387D01*
X8641072Y9049995D01*
X8691855D01*
X8717247Y9024603D01*
Y8999212D01*
X8691855Y8973820D01*
X8641072D01*
X8615680Y8999212D01*
X8768031Y8973820D02*
X8818814D01*
X8793423D01*
Y9126171D01*
X8768031Y9100779D01*
X7063707Y9192211D02*
X7012923D01*
X7038315D01*
Y9065252D01*
X7012923Y9039860D01*
X6987532D01*
X6962140Y9065252D01*
X7114491Y9039860D02*
X7165274D01*
X7139883D01*
Y9192211D01*
X7114491Y9166819D01*
X6162040Y7287211D02*
Y7134860D01*
X6238215D01*
X6263607Y7160252D01*
Y7261819D01*
X6238215Y7287211D01*
X6162040D01*
X6314391Y7134860D02*
X6365174D01*
X6339783D01*
Y7287211D01*
X6314391Y7261819D01*
D21*
X6197600Y6794500D02*
D03*
%TF.MD5,d3364bcec9d7ca8d04aa2aecc1ff0b2b*%
M02*
